<?xml version="1.0" encoding="UTF-8"?><svg id="Layer_1" xmlns="http://www.w3.org/2000/svg" viewBox="0 0 1261.01 291.9"><path class="cls-1" d="m145.95,0C65.39,0,0,65.39,0,145.95s65.39,145.95,145.95,145.95,145.95-65.39,145.95-145.95C292.01,65.39,226.63,0,145.95,0ZM36.9,124.7c0-48.57,39.35-87.8,87.92-87.8,45.65,0,83.25,34.79,87.45,79.4-2.69-.23-5.49-.35-8.29-.35-48.57,0-88.04,39.35-88.04,88.04,0,2.8.12,5.6.35,8.29-44.49-4.32-79.4-41.8-79.4-87.57h.01Zm361.83-63.17h44.72v156.58h96.79v36.43h-141.51V61.53h0Zm158.33,0c0-13.54,10.74-23.94,26.74-23.94s26.74,9.92,26.74,23.12c0,14.36-10.74,24.87-26.74,24.87s-26.74-10.51-26.74-24.05Zm5.25,44.72h43.08v148.29h-43.08V106.25Zm178.76,141.16c-8.87,6.31-21.83,9.34-35.03,9.34-35.03,0-55.46-17.98-55.46-53.24v-60.95h-22.88v-33.04h22.88v-36.08h43.08v36.08h37.01v33.04h-37.01v60.36c0,12.73,6.89,19.62,18.45,19.62,6.31,0,12.73-1.98,17.4-5.49l11.56,30.36h0Zm13.54-185.88c0-13.54,10.74-23.94,26.74-23.94s26.74,9.92,26.74,23.12c0,14.36-10.74,24.87-26.74,24.87s-26.74-10.51-26.74-24.05Zm5.25,44.72h43.08v148.29h-43.08V106.25Zm221.49,0v148.29h-40.87v-17.63c-11.33,12.96-27.91,19.85-46.12,19.85-37.25,0-63.4-20.9-63.4-66.79v-83.72h43.08v77.53c0,24.87,11.09,35.85,30.01,35.85,19.85,0,34.21-12.73,34.21-39.93v-73.45h43.09Zm279.64,63.4v84.88h-43.08v-78.23c0-23.94-10.75-35.03-28.14-35.03-19.27,0-32.81,12.38-32.81,38.88v74.38h-43.08v-78.23c0-23.94-10.16-35.03-28.14-35.03-19.03,0-32.58,12.38-32.58,38.88v74.38h-43.08V106.25h41.1v17.05c11.09-12.73,27.56-19.27,46.59-19.27,20.67,0,38.3,7.94,48.81,24.29,11.91-15.18,31.17-24.29,53.48-24.29,35.61,0,60.95,20.43,60.95,65.62h-.02Z"/></svg>