<?xml version="1.0" encoding="UTF-8"?><svg id="Layer_1" xmlns="http://www.w3.org/2000/svg" viewBox="0 0 32 32"><path d="m3.3,32c-.93,0-1.72-.32-2.35-.95-.63-.63-.95-1.42-.95-2.35s.32-1.72.95-2.35,1.42-.95,2.35-.95,1.72.32,2.35.95c.63.63.95,1.42.95,2.35s-.32,1.72-.95,2.35c-.63.63-1.42.95-2.35.95Zm12.7,0c-.93,0-1.72-.32-2.35-.95-.63-.63-.95-1.42-.95-2.35s.32-1.72.95-2.35c.63-.63,1.42-.95,2.35-.95s1.72.32,2.35.95c.63.63.95,1.42.95,2.35s-.32,1.72-.95,2.35c-.63.63-1.42.95-2.35.95Zm12.7,0c-.93,0-1.72-.32-2.35-.95-.63-.63-.95-1.42-.95-2.35s.32-1.72.95-2.35c.63-.63,1.42-.95,2.35-.95s1.72.32,2.35.95.95,1.42.95,2.35-.32,1.72-.95,2.35c-.63.63-1.42.95-2.35.95ZM3.3,19.3c-.93,0-1.72-.32-2.35-.95-.63-.63-.95-1.42-.95-2.35s.32-1.72.95-2.35c.63-.63,1.42-.95,2.35-.95s1.72.32,2.35.95c.63.63.95,1.42.95,2.35s-.32,1.72-.95,2.35c-.63.63-1.42.95-2.35.95Zm12.7,0c-.93,0-1.72-.32-2.35-.95-.63-.63-.95-1.42-.95-2.35s.32-1.72.95-2.35c.63-.63,1.42-.95,2.35-.95s1.72.32,2.35.95c.63.63.95,1.42.95,2.35s-.32,1.72-.95,2.35c-.63.63-1.42.95-2.35.95Zm12.7,0c-.93,0-1.72-.32-2.35-.95s-.95-1.42-.95-2.35.32-1.72.95-2.35c.63-.63,1.42-.95,2.35-.95s1.72.32,2.35.95c.63.63.95,1.42.95,2.35s-.32,1.72-.95,2.35c-.63.63-1.42.95-2.35.95ZM3.3,6.6c-.93,0-1.72-.32-2.35-.95s-.95-1.42-.95-2.35S.32,1.58.95.95c.63-.63,1.42-.95,2.35-.95s1.72.32,2.35.95.95,1.42.95,2.35-.32,1.72-.95,2.35c-.63.63-1.42.95-2.35.95Zm12.7,0c-.93,0-1.72-.32-2.35-.95-.63-.63-.95-1.42-.95-2.35s.32-1.72.95-2.35c.63-.63,1.42-.95,2.35-.95s1.72.32,2.35.95c.63.63.95,1.42.95,2.35s-.32,1.72-.95,2.35c-.63.63-1.42.95-2.35.95Zm12.7,0c-.93,0-1.72-.32-2.35-.95s-.95-1.42-.95-2.35.32-1.72.95-2.35,1.42-.95,2.35-.95,1.72.32,2.35.95c.63.63.95,1.42.95,2.35s-.32,1.72-.95,2.35c-.63.63-1.42.95-2.35.95Z"/></svg>