<?xml version="1.0" encoding="UTF-8"?><svg id="Layer_1" xmlns="http://www.w3.org/2000/svg" viewBox="0 0 40 40"><path d="M15.4,40l-1-6.3c-.63-.23-1.3-.55-2-.95-.7-.4-1.32-.82-1.85-1.25l-5.9,2.7L0,26l5.4-3.95c-.07-.3-.11-.64-.12-1.02-.02-.38-.02-.72-.02-1.02s0-.64,.02-1.02c.02-.38,.06-.73,.12-1.02L0,14,4.65,5.8l5.9,2.7c.53-.43,1.15-.85,1.85-1.25,.7-.4,1.37-.7,2-.9L15.4,0h9.2l1,6.3c.63,.23,1.31,.54,2.02,.93,.72,.38,1.33,.81,1.83,1.27l5.9-2.7,4.65,8.2-5.4,3.85c.07,.33,.11,.69,.12,1.08,.02,.38,.03,.74,.03,1.08s0,.68-.03,1.05c-.02,.37-.06,.72-.12,1.05l5.4,3.9-4.65,8.2-5.9-2.7c-.53,.43-1.14,.86-1.83,1.28-.68,.42-1.36,.72-2.02,.92l-1,6.3H15.4Zm4.6-13.5c1.8,0,3.33-.63,4.6-1.9s1.9-2.8,1.9-4.6-.63-3.33-1.9-4.6-2.8-1.9-4.6-1.9-3.33,.63-4.6,1.9-1.9,2.8-1.9,4.6,.63,3.33,1.9,4.6,2.8,1.9,4.6,1.9Zm0-3c-.97,0-1.79-.34-2.48-1.02-.68-.68-1.02-1.51-1.02-2.48s.34-1.79,1.02-2.48c.68-.68,1.51-1.02,2.48-1.02s1.79,.34,2.48,1.02c.68,.68,1.02,1.51,1.02,2.48s-.34,1.79-1.02,2.48c-.68,.68-1.51,1.02-2.48,1.02Zm-2.2,13.5h4.4l.7-5.6c1.1-.27,2.14-.68,3.12-1.25s1.88-1.25,2.68-2.05l5.3,2.3,2-3.6-4.7-3.45c.13-.57,.24-1.12,.33-1.67s.12-1.11,.12-1.67-.03-1.12-.1-1.67-.18-1.11-.35-1.67l4.7-3.45-2-3.6-5.3,2.3c-.77-.87-1.63-1.59-2.6-2.18-.97-.58-2.03-.96-3.2-1.12l-.7-5.6h-4.4l-.7,5.6c-1.13,.23-2.19,.63-3.17,1.2-.98,.57-1.86,1.27-2.62,2.1l-5.3-2.3-2,3.6,4.7,3.45c-.13,.57-.24,1.12-.32,1.67s-.12,1.11-.12,1.67,.04,1.12,.12,1.67c.08,.55,.19,1.11,.32,1.67l-4.7,3.45,2,3.6,5.3-2.3c.8,.8,1.69,1.48,2.68,2.05s2.02,.98,3.12,1.25l.7,5.6Z"/></svg>