<?xml version="1.0" encoding="UTF-8"?><svg id="Layer_1" xmlns="http://www.w3.org/2000/svg" viewBox="0 0 40 36.05"><path d="m0,36.05v-3.2c1.2-.1,2.16-.45,2.88-1.05.72-.6,1.84-.9,3.38-.9s2.78.36,3.75,1.08,2.08,1.08,3.35,1.08,2.31-.36,3.13-1.08,1.99-1.08,3.53-1.08,2.78.36,3.75,1.08,2.08,1.08,3.35,1.08,2.32-.36,3.15-1.08,2.02-1.08,3.55-1.08,2.65.3,3.35.9,1.65.95,2.85,1.05v3.2c-1.17-.1-2.18-.48-3.03-1.13s-1.91-.98-3.18-.98-2.35.35-3.25,1.05-2.05,1.05-3.45,1.05-2.62-.35-3.65-1.05-2.18-1.05-3.45-1.05-2.38.35-3.33,1.05-2.13,1.05-3.53,1.05-2.58-.35-3.55-1.05c-.97-.7-2.08-1.05-3.35-1.05s-2.33.33-3.2.98c-.87.65-1.88,1.03-3.05,1.13Zm0-9.4v-3c1.2-.1,2.16-.44,2.88-1.03.72-.58,1.84-.88,3.38-.88s2.75.32,3.65.95,1.98.95,3.25.95,2.34-.32,3.23-.95,2.09-.95,3.63-.95,2.75.32,3.65.95,1.98.95,3.25.95,2.35-.32,3.25-.95,2.12-.95,3.65-.95,2.65.29,3.35.88,1.65.93,2.85,1.03v3c-1.17-.1-2.18-.48-3.03-1.13s-1.91-.98-3.18-.98-2.35.35-3.25,1.05-2.05,1.05-3.45,1.05-2.62-.35-3.65-1.05-2.18-1.05-3.45-1.05-2.34.35-3.23,1.05-2.03,1.05-3.43,1.05-2.62-.35-3.65-1.05c-1.03-.7-2.18-1.05-3.45-1.05s-2.33.33-3.2.98c-.87.65-1.88,1.03-3.05,1.13Zm10.4-10.4l6.75-6.75-2.7-2.7c-1.13-1.13-2.28-1.89-3.45-2.28s-2.65-.58-4.45-.58V0c2.4,0,4.38.3,5.93.9s3.06,1.63,4.53,3.1l12.65,12.65c-.37.3-.79.52-1.28.65s-.98.2-1.48.2c-1.27,0-2.36-.35-3.28-1.05s-2.13-1.05-3.63-1.05-2.7.35-3.6,1.05-1.98,1.05-3.25,1.05c-.6,0-1.14-.12-1.63-.35s-.86-.53-1.13-.9ZM29.4.2c1.33,0,2.46.46,3.38,1.38.92.92,1.38,2.04,1.38,3.38s-.46,2.46-1.38,3.38-2.04,1.38-3.38,1.38-2.46-.46-3.38-1.38-1.38-2.04-1.38-3.38.46-2.46,1.38-3.38c.92-.92,2.04-1.38,3.38-1.38Z"/></svg>