<?xml version="1.0" encoding="UTF-8"?><svg id="Logo_Shadow" xmlns="http://www.w3.org/2000/svg" xmlns:xlink="http://www.w3.org/1999/xlink" viewBox="0 0 1057.94 461.03"><defs><style>.cls-1{filter:url(#drop-shadow-3);}.cls-2{filter:url(#drop-shadow-1);}.cls-3{fill:#7811c1;}.cls-4{filter:url(#drop-shadow-2);}.cls-5{fill:#52047f;}</style><filter id="drop-shadow-1" filterUnits="userSpaceOnUse"><feOffset dx="7" dy="7"/><feGaussianBlur result="blur" stdDeviation="5"/><feFlood flood-color="#180535" flood-opacity=".65"/><feComposite in2="blur" operator="in"/><feComposite in="SourceGraphic"/></filter><filter id="drop-shadow-2" filterUnits="userSpaceOnUse"><feOffset dx="7" dy="7"/><feGaussianBlur result="blur-2" stdDeviation="5"/><feFlood flood-color="#180535" flood-opacity=".65"/><feComposite in2="blur-2" operator="in"/><feComposite in="SourceGraphic"/></filter><filter id="drop-shadow-3" filterUnits="userSpaceOnUse"><feOffset dx="7" dy="7"/><feGaussianBlur result="blur-3" stdDeviation="5"/><feFlood flood-color="#180535" flood-opacity=".65"/><feComposite in2="blur-3" operator="in"/><feComposite in="SourceGraphic"/></filter></defs><g class="cls-2"><g><path class="cls-5" d="M76.56,252.22v83.66h-18.56V122.62h54.07c22.22,0,39.33,5.32,51.32,15.95,11.97,10.63,17.98,25.7,17.98,45.23,0,13.25-3.07,25.11-9.22,35.59-6.13,10.49-14.88,18.58-26.24,24.29-11.36,5.71-24.48,8.54-39.36,8.54h-30.01Zm0-112.63v95.68h28.7c18.65,0,32.78-4.35,42.4-13.06,9.61-8.69,14.43-20.97,14.43-36.82,0-30.54-17.75-45.8-53.21-45.8h-32.32Z"/><path class="cls-5" d="M363.9,335.88l-23.81-63.78h-91.73l-23.2,63.78h-20.58l80.9-213.25h18.56l80.45,213.25h-20.57Zm-69.45-191.94h-.58c-.58,3.18-1.37,6.35-2.39,9.49-1.01,3.14-13.28,37.04-36.75,101.7h79.17l-35.11-95.83c-1.93-5.21-3.37-10.34-4.35-15.36Z"/><path class="cls-5" d="M639.17,335.88V122.62h50.12c32.6,0,57.33,8.76,74.11,26.32,16.78,17.54,25.17,43.36,25.17,77.48,0,21.74-4.18,40.95-12.55,57.63-8.37,16.68-20.27,29.47-35.72,38.41-15.45,8.94-33.32,13.41-53.64,13.41h-47.5Zm16.76-196.29v179.48h29.7c27.28,0,48.34-7.98,63.12-23.92,14.78-15.95,22.18-38.66,22.18-68.15,0-58.28-27.75-87.41-83.22-87.41h-31.78Z"/><path class="cls-5" d="M905.82,339.65c-17.45,0-32.99-4.57-46.63-13.7-13.66-9.13-24.23-21.97-31.73-38.5-7.5-16.53-11.26-35.12-11.26-55.82,0-22.52,3.76-42.31,11.26-59.37,7.5-17.05,18.32-30.2,32.45-39.43,14.11-9.23,30.57-13.84,49.31-13.84,17.18,0,32.47,4.51,45.87,13.55,13.39,9.04,23.71,21.7,31.01,37.99,7.28,16.28,10.92,34.86,10.92,55.73,0,22.33-3.71,42.14-11.11,59.44-7.43,17.31-17.99,30.62-31.73,39.95-13.74,9.33-29.85,13.99-48.34,13.99Zm1.44-203.83c-14.38,0-27.2,3.94-38.39,11.81-11.21,7.89-19.9,19.02-26.04,33.42-6.16,14.4-9.23,30.6-9.23,48.56s2.95,34.37,8.84,48.58c5.89,14.21,14.23,25.19,25.05,32.98,10.82,7.78,23.56,11.67,38.22,11.67,23.02,0,41.06-8.39,54.16-25.15,13.07-16.77,19.63-39.66,19.63-68.65,0-18.84-2.85-35.33-8.51-49.44-5.67-14.11-13.94-24.93-24.8-32.47-10.84-7.53-23.81-11.3-38.91-11.3Z"/></g></g><g class="cls-4"><path class="cls-5" d="M437.11,167.44v162.58l-18.57,5.85-.13-213.17,18.7,2.32,117.05,169.15c-1.95,5.45,7.79,12.48,10.89,17.9v-6.22c0-9.26,.07-16.73,.07-23.01V124.4l18.83-1.77v213.26l-18.83-4.97-117.33-167.41c-.7-6.97-9.4-14.8-10.74-17.6"/><polygon class="cls-3" points="418.54 335.88 489.25 228.43 418.42 122.71 447.57 122.62 501.19 213.04 554.93 122.62 583.95 122.62 513.12 228.14 583.95 335.88 554.93 335.88 501.32 244.21 447.57 335.88 418.54 335.88"/></g><g id="Vertical_text" class="cls-1"><g id="N_E"><g id="E"><rect class="cls-5" x="474.05" y="107.31" width="54.08" height="5.77"/><rect class="cls-5" x="474.05" y="119.74" width="54.08" height="5.77"/><rect class="cls-5" x="474.05" y="132.62" width="54.08" height="5.77"/></g><g><g><polygon class="cls-5" points="461.92 58.15 461.91 58.15 461.92 58.15 461.92 51.45 452.68 51.45 452.68 93.63 461.92 93.63 461.92 58.15"/><rect class="cls-5" x="540.44" y="51.73" width="9.24" height="42.18"/></g><path class="cls-5" d="M528.13,79.29l-54.08-24.2v11.2c3.91,1.87,7.5,3.51,13.39,6.15l40.69,17.54v-10.7Z"/></g></g><rect class="cls-5" x="479.03" y="328.07" width="44.03" height="11.55" transform="translate(834.88 -167.2) rotate(90)"/><g id="Under_line_S"><path class="cls-5" d="M478.1,387.24h-21.89c2.5,3.59,18.19,5.84,42.36,7.42,27.13,1.92,25.61,1.85,29.47,4.43h21.98c-2.39-3.64-16.11-5.81-40.89-7.57-17.99-1.28-27.87-2.42-31.03-4.28Z"/><path class="cls-5" d="M528.72,406.2c-2.42,3.13-14.37,5.21-33.38,5.21-14.41,0-28.1-1.12-37.46-2.46l-5.28,4.08c8.65,1.34,25.7,2.4,41.31,2.4,34.61,0,52.99-4.14,56.13-9.24h-21.31Z"/><path class="cls-5" d="M477.32,380.44c2.35-2.44,11.22-4.83,29.82-4.83,14.65,0,25.46,1.23,30.74,1.96l5.77-4.35c-7.21-1.04-19.21-2.02-35.79-2.02-28.13,0-47.77,3.83-51.62,9.24h21.07Z"/></g></g></svg>