<?xml version="1.0" encoding="UTF-8"?><svg id="Layer_1" xmlns="http://www.w3.org/2000/svg" viewBox="0 0 733.01 336.7"><defs><style>.cls-1{fill:#65e2e5;opacity:.03;}</style></defs><path class="cls-1" d="m395.81,76h-54.08v-5.77h54.08v5.77Zm-364.74.19h.02C23.04,69.06,12.67,64.32.01,61.98v18.14c19.84,5.76,29.77,20.05,29.77,42.89,0,15.85-4.81,28.13-14.43,36.82-4.24,3.84-9.36,6.82-15.35,8.97v17.73c4.79-1.34,9.32-3.08,13.6-5.23,11.36-5.71,20.1-13.8,26.23-24.29,6.14-10.48,9.22-22.34,9.22-35.59,0-19.53-6.01-34.6-17.98-45.23ZM329.61,0h-9.24v31.25h9.24V0Zm87.75,0h-9.24v31.53h9.24V0Zm-21.55,57.36h-54.08v5.77h54.08v-5.77Zm0-12.44h-54.08v5.77h54.08v-5.77Zm0-17.32v-10.7L358.04,0h-16.31v3.91c3.91,1.87,7.5,3.51,13.39,6.15l40.69,17.54Zm235.27,58.96c16.78,17.54,25.17,43.36,25.17,77.48,0,21.74-4.18,40.95-12.55,57.63s-20.27,29.47-35.72,38.41-33.32,13.41-53.64,13.41h-47.49V60.24h50.12c32.6,0,57.33,8.76,74.11,26.32Zm7.53,78.05c0-58.28-27.75-87.41-83.22-87.41h-31.78v179.48h29.7c27.28,0,48.34-7.98,63.12-23.92,14.78-15.95,22.18-38.66,22.18-68.15Zm71.51,51.18c-5.89-14.21-8.84-30.4-8.84-48.58s3.07-34.16,9.23-48.56c5.47-12.84,12.98-23.08,22.5-30.74v-20.72c-1.84,1.01-3.65,2.1-5.42,3.25-14.13,9.23-24.95,22.38-32.45,39.43-7.5,17.06-11.26,36.85-11.26,59.37,0,20.69,3.76,39.29,11.26,55.82,7.5,16.53,18.07,29.36,31.73,38.5,2,1.34,4.05,2.57,6.13,3.71v-20.13c-9.77-7.67-17.39-18.11-22.88-31.35Zm22.88,31.35h0s0,0,.01.01h-.01ZM451.64,60.24h0v213.26h-.04s-28.99-.01-28.99-.01l-53.6-91.66-53.75,91.66h-29.03,0s0-.01,0-.01l-.13-213.17h.08s29.08-.07,29.08-.07l53.61,90.41,53.74-90.41h29.03Zm-94.7,105.8l-52.19-77.89.05,16.9v140.22l52.14-79.23Zm75.87-77.75l-52,77.46,51.93,78.99v-1.28c0-9.26.07-16.73.07-23.01V88.29Zm-55.98,240.84c-17.99-1.28-27.87-2.42-31.03-4.28h-21.89c2.5,3.59,18.19,5.84,42.36,7.42,27.13,1.92,25.61,1.85,29.47,4.43h21.98c-2.39-3.64-16.11-5.81-40.89-7.57Zm-13.88-79.69v44.03h11.55v-44.03h-11.55ZM171.72,60.31l80.45,213.25h-20.58s-23.81-63.77-23.81-63.77h-91.73l-23.2,63.78h-20.58L153.16,60.31h18.56Zm29.87,132.51l-35.11-95.83c-1.93-5.21-3.37-10.34-4.35-15.36h-.57c-.58,3.18-1.37,6.35-2.39,9.49-1.01,3.14-13.28,37.04-36.75,101.7h79.17Zm122.34,125.24h21.07c2.35-2.44,11.22-4.83,29.82-4.83h.01c14.65,0,25.46,1.23,30.74,1.96l5.77-4.35c-7.21-1.04-19.21-2.02-35.79-2.02-28.13,0-47.77,3.83-51.62,9.24Z"/></svg>