<?xml version="1.0" encoding="UTF-8"?><svg id="Layer_1" xmlns="http://www.w3.org/2000/svg" xmlns:xlink="http://www.w3.org/1999/xlink" viewBox="0 0 733 336.7"><defs><style>.cls-1{filter:url(#drop-shadow-1);}.cls-1,.cls-2,.cls-3{opacity:.06;}.cls-2{filter:url(#drop-shadow-2);}.cls-4{fill:#7c790a;}.cls-3{filter:url(#drop-shadow-3);}</style><filter id="drop-shadow-1" filterUnits="userSpaceOnUse"><feOffset dx="7" dy="7"/><feGaussianBlur result="blur" stdDeviation="5"/><feFlood flood-color="#180535" flood-opacity=".65"/><feComposite in2="blur" operator="in"/><feComposite in="SourceGraphic"/></filter><filter id="drop-shadow-2" filterUnits="userSpaceOnUse"><feOffset dx="7" dy="7"/><feGaussianBlur result="blur-2" stdDeviation="5"/><feFlood flood-color="#180535" flood-opacity=".65"/><feComposite in2="blur-2" operator="in"/><feComposite in="SourceGraphic"/></filter><filter id="drop-shadow-3" filterUnits="userSpaceOnUse"><feOffset dx="7" dy="7"/><feGaussianBlur result="blur-3" stdDeviation="5"/><feFlood flood-color="#180535" flood-opacity=".65"/><feComposite in2="blur-3" operator="in"/><feComposite in="SourceGraphic"/></filter></defs><g class="cls-1"><g><path class="cls-4" d="m31.08,76.19c-8.05-7.13-18.42-11.87-31.08-14.21v18.14c19.84,5.76,29.77,20.05,29.77,42.89,0,15.85-4.81,28.13-14.43,36.82-4.24,3.84-9.36,6.82-15.35,8.97v17.73c4.79-1.34,9.32-3.08,13.6-5.23,11.36-5.71,20.1-13.8,26.23-24.29,6.14-10.48,9.22-22.34,9.22-35.59,0-19.53-6.01-34.6-17.98-45.23Z"/><path class="cls-4" d="m231.58,273.57l-23.81-63.78h-91.73l-23.2,63.78h-20.58L153.15,60.31h18.56l80.45,213.25h-20.57Zm-69.45-191.94h-.58c-.58,3.18-1.37,6.35-2.39,9.49-1.01,3.14-13.28,37.04-36.75,101.7h79.17l-35.11-95.83c-1.93-5.21-3.37-10.34-4.35-15.36Z"/><path class="cls-4" d="m506.84,273.49V60.24h50.12c32.6,0,57.33,8.76,74.11,26.32,16.78,17.54,25.17,43.36,25.17,77.48,0,21.74-4.18,40.95-12.55,57.63-8.37,16.68-20.27,29.47-35.72,38.41-15.45,8.94-33.32,13.41-53.64,13.41h-47.5Zm16.76-196.29v179.48h29.7c27.28,0,48.34-7.98,63.12-23.92,14.78-15.95,22.18-38.66,22.18-68.15,0-58.28-27.75-87.41-83.22-87.41h-31.78Z"/><path class="cls-4" d="m733,247.15c-9.77-7.67-17.4-18.11-22.89-31.36-5.89-14.21-8.84-30.4-8.84-48.58s3.07-34.16,9.23-48.56c5.47-12.84,12.98-23.08,22.5-30.74v-20.72c-1.84,1.01-3.65,2.1-5.42,3.25-14.13,9.23-24.95,22.38-32.45,39.43-7.5,17.06-11.26,36.85-11.26,59.37,0,20.69,3.76,39.29,11.26,55.82s18.07,29.36,31.73,38.5c2,1.34,4.05,2.57,6.13,3.71v-20.13Z"/></g></g><g class="cls-2"><path class="cls-4" d="m304.79,105.05v162.58l-18.57,5.85-.13-213.17,18.7,2.32,117.05,169.15c-1.95,5.45,7.79,12.48,10.89,17.9v-6.22c0-9.26.07-16.73.07-23.01V62.01l18.83-1.77v213.26l-18.83-4.97-117.33-167.41c-.7-6.97-9.4-14.8-10.74-17.6"/><polygon class="cls-4" points="286.22 273.49 356.93 166.04 286.1 60.32 315.25 60.24 368.86 150.65 422.6 60.24 451.63 60.24 380.8 165.75 451.63 273.49 422.6 273.49 369 181.83 315.25 273.49 286.22 273.49"/></g><g id="Vertical_text" class="cls-3"><g id="N_E"><g id="E"><rect class="cls-4" x="341.72" y="44.92" width="54.08" height="5.77"/><rect class="cls-4" x="341.72" y="57.36" width="54.08" height="5.77"/><rect class="cls-4" x="341.72" y="70.23" width="54.08" height="5.77"/></g><g><rect class="cls-4" x="408.11" width="9.24" height="31.53"/><rect class="cls-4" x="320.36" width="9.24" height="31.25"/><path class="cls-4" d="m341.72,0v3.91c3.91,1.87,7.5,3.51,13.39,6.15l40.69,17.54v-10.7L358.03,0h-16.31Z"/></g><rect class="cls-4" x="346.71" y="265.68" width="44.03" height="11.55" transform="translate(640.17 -97.27) rotate(90)"/></g><g><path class="cls-4" d="m374.82,313.23c14.65,0,25.46,1.23,30.74,1.96l5.77-4.35c-7.21-1.04-19.21-2.02-35.79-2.02-28.13,0-47.77,3.83-51.62,9.24h21.07c2.35-2.44,11.22-4.83,29.82-4.83Z"/><path class="cls-4" d="m366.26,332.27c27.13,1.92,25.61,1.85,29.47,4.43h21.98c-2.39-3.64-16.11-5.81-40.89-7.57-17.99-1.28-27.87-2.42-31.03-4.28h-21.89c2.5,3.59,18.19,5.84,42.36,7.42Z"/></g></g></svg>