<?xml version="1.0" encoding="UTF-8"?><svg id="Layer_1" xmlns="http://www.w3.org/2000/svg" viewBox="0 0 1949.25 221.08"><defs><style>.cls-1,.cls-2{fill:#fff;}.cls-2{fill-rule:evenodd;}</style></defs><g><path class="cls-1" d="M0,38.75H39.47c30.97,0,51.87,10.42,51.87,40.7s-20.79,42.69-51.03,42.69H17.59v54.83H0V38.75ZM38.1,107.87c24.17,0,35.7-8.76,35.7-28.42s-12.26-26.43-36.54-26.43H17.59v54.85h20.51Z"/><path class="cls-1" d="M167,74.33v16.38c9.43,6.22,15.2,18.9,15.2,35.2,0,23.46-11.93,39.16-29.54,39.16s-29.54-15.7-29.54-39.16c0-16.31,5.77-28.99,15.2-35.2v-16.38c-18.68,6.06-33.1,24.15-33.1,51.59,0,33.89,22.34,53.58,47.43,53.58s47.43-19.68,47.43-53.58c0-27.44-14.42-45.53-33.1-51.59Z"/><rect class="cls-1" x="146.84" y="71.95" width="11.65" height="43.01"/><path class="cls-1" d="M213.59,74.6h17.7l15.19,59.13c2.22,9.73,4.12,18.93,6.08,28.55h.84c2.22-9.62,4.43-18.97,6.96-28.55l15.81-59.13h16.9l15.96,59.13c2.53,9.73,4.74,18.93,7.12,28.55h.84c2.22-9.62,4.12-18.82,6.34-28.55l14.92-59.13h16.5l-27.47,102.36h-21.09l-14.77-55.01c-2.48-9.69-4.43-19.11-6.92-29.49h-.84c-2.22,10.38-4.28,20.07-7.03,29.76l-14.35,54.74h-20.25l-28.46-102.36Z"/><path class="cls-1" d="M368.56,125.91c0-33.32,22.45-53.84,46.02-53.84,26.11,0,40.85,18.75,40.85,48.03,0,3.66-.31,7.31-.81,9.84h-68.93c1.24,21.68,14.5,35.75,34.01,35.75,9.82,0,17.89-3.17,25.47-8.18l6.2,11.36c-8.98,5.87-19.88,10.62-33.8,10.62-27.29,0-49.01-19.95-49.01-53.58Zm71.56-8.38c0-20.51-9.23-31.67-25.23-31.67-14.39,0-27.25,11.55-29.36,31.67h54.59Z"/><path class="cls-1" d="M480.61,74.6h14.31l1.46,18.64h.58c7.13-12.99,17.59-21.17,29.1-21.17,4.53,0,7.71,.58,10.93,2.11l-3.23,15.2c-3.52-1.11-5.83-1.68-9.93-1.68-8.65,0-18.98,6.23-25.89,23.55v65.73h-17.32V74.6Z"/><path class="cls-1" d="M543.97,125.91c0-33.32,22.45-53.84,46.01-53.84,26.11,0,40.85,18.75,40.85,48.03,0,3.66-.31,7.31-.81,9.84h-68.93c1.24,21.68,14.5,35.75,34.01,35.75,9.82,0,17.89-3.17,25.47-8.18l6.2,11.36c-8.98,5.87-19.88,10.62-33.8,10.62-27.29,0-49.01-19.95-49.01-53.58Zm71.56-8.38c0-20.51-9.23-31.67-25.23-31.67-14.39,0-27.25,11.55-29.36,31.67h54.59Z"/><path class="cls-1" d="M648.72,125.91c0-33.21,20.95-53.84,44.29-53.84,11.9,0,19.71,4.48,28.69,11.86l-.73-17.56V26.93h17.32V176.96h-14.31l-1.46-12.08h-.58c-7.96,7.96-18.87,14.61-31.06,14.61-25.58,0-42.16-19.46-42.16-53.58Zm72.25,25.03v-53.65c-8.74-7.78-16.61-10.64-24.97-10.64-16.36,0-29.38,15.79-29.38,39.11,0,24.54,10.16,39.16,28.09,39.16,9.47,0,17.67-4.61,26.25-13.97Z"/><path class="cls-1" d="M831.04,166.39h-.58l-1.62,10.57h-13.85V26.93h17.32v41.04l-.58,18.36c9.37-8.07,20.76-14.26,32.16-14.26,26.45,0,40.66,20.53,40.66,52.08,0,34.97-20.95,55.34-44.33,55.34-9.53,0-20.13-4.9-29.2-13.1Zm55.63-42.01c0-22.59-7.72-37.74-26.98-37.74-8.67,0-17.67,4.77-27.36,13.97v53.65c9,7.78,18.16,10.64,24.92,10.64,16.94,0,29.42-15.26,29.42-40.53Z"/><path class="cls-1" d="M920.34,218.97l3.39-13.8c2.03,.69,5.17,1.53,7.8,1.53,11.55,0,18.84-9.27,23.08-21.98l2.33-7.56-41.08-102.57h17.85l20.89,56.67c3.21,8.89,6.65,19.37,9.98,28.84h.84c2.9-9.31,5.81-19.8,8.6-28.84l18.25-56.67h16.97l-38.57,110.8c-7.22,20.31-17.8,35.69-38.32,35.69-4.76,0-8.71-.84-12.01-2.11Z"/></g><path class="cls-2" d="M1183.48,0c-55.33,0-100.23,44.9-100.23,100.23s44.9,100.23,100.23,100.23,100.23-44.9,100.23-100.23c.08-55.33-44.82-100.23-100.23-100.23Zm-74.89,85.64c0-33.36,27.02-60.3,60.38-60.3,31.35,0,57.17,23.9,60.06,54.53-1.84-.16-3.77-.24-5.69-.24-33.36,0-60.46,27.02-60.46,60.46,0,1.92,.08,3.85,.24,5.69-30.55-2.97-54.53-28.71-54.53-60.14Zm248.49-43.38h30.71v107.53h66.47v25.02h-97.18V42.26Zm108.73,0c0-9.3,7.38-16.44,18.36-16.44s18.36,6.82,18.36,15.88c0,9.86-7.38,17.08-18.36,17.08s-18.36-7.22-18.36-16.52Zm3.61,30.71h29.59v101.84h-29.59V72.97Zm122.76,96.94c-6.09,4.33-14.99,6.41-24.06,6.41-24.06,0-38.09-12.35-38.09-36.56v-41.86h-15.72v-22.69h15.72v-24.78h29.59v24.78h25.42v22.69h-25.42v41.46c0,8.74,4.73,13.47,12.67,13.47,4.33,0,8.74-1.36,11.95-3.77l7.94,20.85Zm9.3-127.65c0-9.3,7.38-16.44,18.36-16.44s18.36,6.82,18.36,15.88c0,9.86-7.38,17.08-18.36,17.08s-18.36-7.22-18.36-16.52Zm3.61,30.71h29.59v101.84h-29.59V72.97Zm152.11,0v101.84h-28.06v-12.11c-7.78,8.9-19.16,13.63-31.67,13.63-25.58,0-43.54-14.35-43.54-45.87v-57.49h29.59v53.24c0,17.08,7.62,24.62,20.61,24.62,13.63,0,23.49-8.74,23.49-27.42v-50.44h29.59Zm192.04,43.54v58.29h-29.58v-53.72c0-16.44-7.38-24.06-19.33-24.06-13.23,0-22.53,8.5-22.53,26.7v51.08h-29.59v-53.72c0-16.44-6.98-24.06-19.32-24.06-13.07,0-22.37,8.5-22.37,26.7v51.08h-29.59V72.97h28.23v11.71c7.62-8.74,18.92-13.23,31.99-13.23,14.19,0,26.3,5.45,33.52,16.68,8.18-10.42,21.41-16.68,36.72-16.68,24.46,0,41.86,14.03,41.86,45.06Z"/></svg>