<?xml version="1.0" encoding="UTF-8"?><svg id="Layer_1" xmlns="http://www.w3.org/2000/svg" viewBox="0 0 39.2 39.95"><path d="M11.8,39.95c-1,0-1.85-.35-2.55-1.05-.7-.7-1.05-1.55-1.05-2.55s.35-1.85,1.05-2.55c.7-.7,1.55-1.05,2.55-1.05s1.85,.35,2.55,1.05c.7,.7,1.05,1.55,1.05,2.55s-.35,1.85-1.05,2.55c-.7,.7-1.55,1.05-2.55,1.05Zm20,0c-1,0-1.85-.35-2.55-1.05-.7-.7-1.05-1.55-1.05-2.55s.35-1.85,1.05-2.55c.7-.7,1.55-1.05,2.55-1.05s1.85,.35,2.55,1.05c.7,.7,1.05,1.55,1.05,2.55s-.35,1.85-1.05,2.55c-.7,.7-1.55,1.05-2.55,1.05ZM9.2,6.95l5.5,11.4h14.4l6.25-11.4H9.2Zm-1.5-3h29.45c.77,0,1.35,.35,1.75,1.05,.4,.7,.4,1.4,0,2.1l-6.75,12.15c-.37,.63-.84,1.14-1.42,1.52-.58,.38-1.22,.57-1.92,.58H13.65l-2.8,5.2h24.55v3H11.3c-1.4,0-2.41-.47-3.02-1.4-.62-.93-.61-1.98,.02-3.15l3.2-5.9L3.9,3H0V0H5.85l1.85,3.95Zm7,14.4h0Z"/></svg>